<svg width="405" height="59" viewBox="0 0 405 59" fill="none" xmlns="http://www.w3.org/2000/svg">
<rect x="128" width="50" height="15" rx="5" fill="#1E5C8F"/>
<rect x="180" width="50" height="15" rx="5" fill="#1E5C8F"/>
<rect x="284" width="50" height="15" rx="5" fill="#1E5C8F"/>
<rect x="232" width="50" height="15" rx="5" fill="#1E5C8F"/>
<rect x="336" width="50" height="15" rx="5" fill="#1E5C8F"/>
<path d="M143.79 12.127C142.19 12.127 140.559 11.3843 140.559 9.60693C140.559 8.59131 141.117 7.84229 141.904 7.47412C141.25 7.125 140.762 6.47754 140.762 5.60156C140.762 3.97656 142.298 3.25293 143.79 3.25293C145.288 3.25293 146.817 3.97656 146.817 5.60156C146.817 6.47754 146.335 7.125 145.681 7.47412C146.468 7.84229 147.033 8.59131 147.033 9.60693C147.033 11.3843 145.396 12.127 143.79 12.127ZM142.52 5.80469C142.52 6.51562 143.009 6.97266 143.79 6.97266C144.577 6.97266 145.065 6.51562 145.065 5.80469C145.065 5.14453 144.577 4.6875 143.79 4.6875C143.002 4.6875 142.52 5.14453 142.52 5.80469ZM143.79 8.15332C142.952 8.15332 142.317 8.62939 142.317 9.43555C142.317 10.2544 142.964 10.7114 143.79 10.7114C144.621 10.7114 145.275 10.2544 145.275 9.43555C145.275 8.62939 144.634 8.15332 143.79 8.15332ZM148.163 11.1938C148.163 10.6733 148.569 10.2607 149.103 10.2607C149.636 10.2607 150.048 10.6733 150.048 11.1938C150.048 11.7207 149.636 12.127 149.103 12.127C148.569 12.127 148.163 11.7207 148.163 11.1938ZM151.051 5.38574C151.515 4.10986 152.708 3.25293 154.016 3.25293C155.818 3.25293 157.107 4.41455 157.107 6.02686C157.107 7.57568 155.774 8.44531 154.606 9.2959C154.155 9.61963 153.368 10.1973 153.235 10.502H157.221V12H151.242V11.2827C151.242 9.8418 152.645 8.80078 153.692 8.03271C154.714 7.28369 155.342 6.75049 155.342 6.0459C155.342 5.26514 154.815 4.79541 154.035 4.79541C153.286 4.79541 152.765 5.32227 152.492 6.07129L151.051 5.38574ZM161.277 12.127C159.754 12.127 158.681 11.3398 158.123 9.99414L159.506 9.27686C159.836 10.0957 160.439 10.5845 161.239 10.5845C162.096 10.5845 162.725 10.0132 162.725 9.22607C162.725 8.40088 162.109 7.84863 161.188 7.84863C160.579 7.84863 160.059 8.12158 159.697 8.4834L158.522 7.95654L159.03 3.37988H164.051V4.89062H160.42L160.217 6.78857C160.478 6.56641 161.011 6.36963 161.62 6.36963C163.283 6.36963 164.483 7.48682 164.483 9.20068C164.483 10.9082 163.144 12.127 161.277 12.127Z" fill="white"/>
<path d="M247.79 12.127C246.19 12.127 244.559 11.3843 244.559 9.60693C244.559 8.59131 245.117 7.84229 245.904 7.47412C245.25 7.125 244.762 6.47754 244.762 5.60156C244.762 3.97656 246.298 3.25293 247.79 3.25293C249.288 3.25293 250.817 3.97656 250.817 5.60156C250.817 6.47754 250.335 7.125 249.681 7.47412C250.468 7.84229 251.033 8.59131 251.033 9.60693C251.033 11.3843 249.396 12.127 247.79 12.127ZM246.52 5.80469C246.52 6.51562 247.009 6.97266 247.79 6.97266C248.577 6.97266 249.065 6.51562 249.065 5.80469C249.065 5.14453 248.577 4.6875 247.79 4.6875C247.002 4.6875 246.52 5.14453 246.52 5.80469ZM247.79 8.15332C246.952 8.15332 246.317 8.62939 246.317 9.43555C246.317 10.2544 246.964 10.7114 247.79 10.7114C248.621 10.7114 249.275 10.2544 249.275 9.43555C249.275 8.62939 248.634 8.15332 247.79 8.15332ZM252.163 11.1938C252.163 10.6733 252.569 10.2607 253.103 10.2607C253.636 10.2607 254.048 10.6733 254.048 11.1938C254.048 11.7207 253.636 12.127 253.103 12.127C252.569 12.127 252.163 11.7207 252.163 11.1938ZM255.051 5.38574C255.515 4.10986 256.708 3.25293 258.016 3.25293C259.818 3.25293 261.107 4.41455 261.107 6.02686C261.107 7.57568 259.774 8.44531 258.606 9.2959C258.155 9.61963 257.368 10.1973 257.235 10.502H261.221V12H255.242V11.2827C255.242 9.8418 256.645 8.80078 257.692 8.03271C258.714 7.28369 259.342 6.75049 259.342 6.0459C259.342 5.26514 258.815 4.79541 258.035 4.79541C257.286 4.79541 256.765 5.32227 256.492 6.07129L255.051 5.38574ZM265.277 12.127C263.754 12.127 262.681 11.3398 262.123 9.99414L263.506 9.27686C263.836 10.0957 264.439 10.5845 265.239 10.5845C266.096 10.5845 266.725 10.0132 266.725 9.22607C266.725 8.40088 266.109 7.84863 265.188 7.84863C264.579 7.84863 264.059 8.12158 263.697 8.4834L262.522 7.95654L263.03 3.37988H268.051V4.89062H264.42L264.217 6.78857C264.478 6.56641 265.011 6.36963 265.62 6.36963C267.283 6.36963 268.483 7.48682 268.483 9.20068C268.483 10.9082 267.144 12.127 265.277 12.127Z" fill="white"/>
<path d="M195.79 12.127C194.19 12.127 192.559 11.3843 192.559 9.60693C192.559 8.59131 193.117 7.84229 193.904 7.47412C193.25 7.125 192.762 6.47754 192.762 5.60156C192.762 3.97656 194.298 3.25293 195.79 3.25293C197.288 3.25293 198.817 3.97656 198.817 5.60156C198.817 6.47754 198.335 7.125 197.681 7.47412C198.468 7.84229 199.033 8.59131 199.033 9.60693C199.033 11.3843 197.396 12.127 195.79 12.127ZM194.52 5.80469C194.52 6.51562 195.009 6.97266 195.79 6.97266C196.577 6.97266 197.065 6.51562 197.065 5.80469C197.065 5.14453 196.577 4.6875 195.79 4.6875C195.002 4.6875 194.52 5.14453 194.52 5.80469ZM195.79 8.15332C194.952 8.15332 194.317 8.62939 194.317 9.43555C194.317 10.2544 194.964 10.7114 195.79 10.7114C196.621 10.7114 197.275 10.2544 197.275 9.43555C197.275 8.62939 196.634 8.15332 195.79 8.15332ZM200.163 11.1938C200.163 10.6733 200.569 10.2607 201.103 10.2607C201.636 10.2607 202.048 10.6733 202.048 11.1938C202.048 11.7207 201.636 12.127 201.103 12.127C200.569 12.127 200.163 11.7207 200.163 11.1938ZM203.051 5.38574C203.515 4.10986 204.708 3.25293 206.016 3.25293C207.818 3.25293 209.107 4.41455 209.107 6.02686C209.107 7.57568 207.774 8.44531 206.606 9.2959C206.155 9.61963 205.368 10.1973 205.235 10.502H209.221V12H203.242V11.2827C203.242 9.8418 204.645 8.80078 205.692 8.03271C206.714 7.28369 207.342 6.75049 207.342 6.0459C207.342 5.26514 206.815 4.79541 206.035 4.79541C205.286 4.79541 204.765 5.32227 204.492 6.07129L203.051 5.38574ZM213.277 12.127C211.754 12.127 210.681 11.3398 210.123 9.99414L211.506 9.27686C211.836 10.0957 212.439 10.5845 213.239 10.5845C214.096 10.5845 214.725 10.0132 214.725 9.22607C214.725 8.40088 214.109 7.84863 213.188 7.84863C212.579 7.84863 212.059 8.12158 211.697 8.4834L210.522 7.95654L211.03 3.37988H216.051V4.89062H212.42L212.217 6.78857C212.478 6.56641 213.011 6.36963 213.62 6.36963C215.283 6.36963 216.483 7.48682 216.483 9.20068C216.483 10.9082 215.144 12.127 213.277 12.127Z" fill="white"/>
<path d="M299.79 12.127C298.19 12.127 296.559 11.3843 296.559 9.60693C296.559 8.59131 297.117 7.84229 297.904 7.47412C297.25 7.125 296.762 6.47754 296.762 5.60156C296.762 3.97656 298.298 3.25293 299.79 3.25293C301.288 3.25293 302.817 3.97656 302.817 5.60156C302.817 6.47754 302.335 7.125 301.681 7.47412C302.468 7.84229 303.033 8.59131 303.033 9.60693C303.033 11.3843 301.396 12.127 299.79 12.127ZM298.52 5.80469C298.52 6.51562 299.009 6.97266 299.79 6.97266C300.577 6.97266 301.065 6.51562 301.065 5.80469C301.065 5.14453 300.577 4.6875 299.79 4.6875C299.002 4.6875 298.52 5.14453 298.52 5.80469ZM299.79 8.15332C298.952 8.15332 298.317 8.62939 298.317 9.43555C298.317 10.2544 298.964 10.7114 299.79 10.7114C300.621 10.7114 301.275 10.2544 301.275 9.43555C301.275 8.62939 300.634 8.15332 299.79 8.15332ZM304.163 11.1938C304.163 10.6733 304.569 10.2607 305.103 10.2607C305.636 10.2607 306.048 10.6733 306.048 11.1938C306.048 11.7207 305.636 12.127 305.103 12.127C304.569 12.127 304.163 11.7207 304.163 11.1938ZM307.051 5.38574C307.515 4.10986 308.708 3.25293 310.016 3.25293C311.818 3.25293 313.107 4.41455 313.107 6.02686C313.107 7.57568 311.774 8.44531 310.606 9.2959C310.155 9.61963 309.368 10.1973 309.235 10.502H313.221V12H307.242V11.2827C307.242 9.8418 308.645 8.80078 309.692 8.03271C310.714 7.28369 311.342 6.75049 311.342 6.0459C311.342 5.26514 310.815 4.79541 310.035 4.79541C309.286 4.79541 308.765 5.32227 308.492 6.07129L307.051 5.38574ZM317.277 12.127C315.754 12.127 314.681 11.3398 314.123 9.99414L315.506 9.27686C315.836 10.0957 316.439 10.5845 317.239 10.5845C318.096 10.5845 318.725 10.0132 318.725 9.22607C318.725 8.40088 318.109 7.84863 317.188 7.84863C316.579 7.84863 316.059 8.12158 315.697 8.4834L314.522 7.95654L315.03 3.37988H320.051V4.89062H316.42L316.217 6.78857C316.478 6.56641 317.011 6.36963 317.62 6.36963C319.283 6.36963 320.483 7.48682 320.483 9.20068C320.483 10.9082 319.144 12.127 317.277 12.127Z" fill="white"/>
<path d="M351.79 12.127C350.19 12.127 348.559 11.3843 348.559 9.60693C348.559 8.59131 349.117 7.84229 349.904 7.47412C349.25 7.125 348.762 6.47754 348.762 5.60156C348.762 3.97656 350.298 3.25293 351.79 3.25293C353.288 3.25293 354.817 3.97656 354.817 5.60156C354.817 6.47754 354.335 7.125 353.681 7.47412C354.468 7.84229 355.033 8.59131 355.033 9.60693C355.033 11.3843 353.396 12.127 351.79 12.127ZM350.52 5.80469C350.52 6.51562 351.009 6.97266 351.79 6.97266C352.577 6.97266 353.065 6.51562 353.065 5.80469C353.065 5.14453 352.577 4.6875 351.79 4.6875C351.002 4.6875 350.52 5.14453 350.52 5.80469ZM351.79 8.15332C350.952 8.15332 350.317 8.62939 350.317 9.43555C350.317 10.2544 350.964 10.7114 351.79 10.7114C352.621 10.7114 353.275 10.2544 353.275 9.43555C353.275 8.62939 352.634 8.15332 351.79 8.15332ZM356.163 11.1938C356.163 10.6733 356.569 10.2607 357.103 10.2607C357.636 10.2607 358.048 10.6733 358.048 11.1938C358.048 11.7207 357.636 12.127 357.103 12.127C356.569 12.127 356.163 11.7207 356.163 11.1938ZM359.051 5.38574C359.515 4.10986 360.708 3.25293 362.016 3.25293C363.818 3.25293 365.107 4.41455 365.107 6.02686C365.107 7.57568 363.774 8.44531 362.606 9.2959C362.155 9.61963 361.368 10.1973 361.235 10.502H365.221V12H359.242V11.2827C359.242 9.8418 360.645 8.80078 361.692 8.03271C362.714 7.28369 363.342 6.75049 363.342 6.0459C363.342 5.26514 362.815 4.79541 362.035 4.79541C361.286 4.79541 360.765 5.32227 360.492 6.07129L359.051 5.38574ZM369.277 12.127C367.754 12.127 366.681 11.3398 366.123 9.99414L367.506 9.27686C367.836 10.0957 368.439 10.5845 369.239 10.5845C370.096 10.5845 370.725 10.0132 370.725 9.22607C370.725 8.40088 370.109 7.84863 369.188 7.84863C368.579 7.84863 368.059 8.12158 367.697 8.4834L366.522 7.95654L367.03 3.37988H372.051V4.89062H368.42L368.217 6.78857C368.478 6.56641 369.011 6.36963 369.62 6.36963C371.283 6.36963 372.483 7.48682 372.483 9.20068C372.483 10.9082 371.144 12.127 369.277 12.127Z" fill="white"/>
<rect x="128" y="22" width="50" height="15" rx="5" fill="#1E5C8F"/>
<path d="M143.79 34.127C142.19 34.127 140.559 33.3843 140.559 31.6069C140.559 30.5913 141.117 29.8423 141.904 29.4741C141.25 29.125 140.762 28.4775 140.762 27.6016C140.762 25.9766 142.298 25.2529 143.79 25.2529C145.288 25.2529 146.817 25.9766 146.817 27.6016C146.817 28.4775 146.335 29.125 145.681 29.4741C146.468 29.8423 147.033 30.5913 147.033 31.6069C147.033 33.3843 145.396 34.127 143.79 34.127ZM142.52 27.8047C142.52 28.5156 143.009 28.9727 143.79 28.9727C144.577 28.9727 145.065 28.5156 145.065 27.8047C145.065 27.1445 144.577 26.6875 143.79 26.6875C143.002 26.6875 142.52 27.1445 142.52 27.8047ZM143.79 30.1533C142.952 30.1533 142.317 30.6294 142.317 31.4355C142.317 32.2544 142.964 32.7114 143.79 32.7114C144.621 32.7114 145.275 32.2544 145.275 31.4355C145.275 30.6294 144.634 30.1533 143.79 30.1533ZM148.163 33.1938C148.163 32.6733 148.569 32.2607 149.103 32.2607C149.636 32.2607 150.048 32.6733 150.048 33.1938C150.048 33.7207 149.636 34.127 149.103 34.127C148.569 34.127 148.163 33.7207 148.163 33.1938ZM151.051 27.3857C151.515 26.1099 152.708 25.2529 154.016 25.2529C155.818 25.2529 157.107 26.4146 157.107 28.0269C157.107 29.5757 155.774 30.4453 154.606 31.2959C154.155 31.6196 153.368 32.1973 153.235 32.502H157.221V34H151.242V33.2827C151.242 31.8418 152.645 30.8008 153.692 30.0327C154.714 29.2837 155.342 28.7505 155.342 28.0459C155.342 27.2651 154.815 26.7954 154.035 26.7954C153.286 26.7954 152.765 27.3223 152.492 28.0713L151.051 27.3857ZM161.277 34.127C159.754 34.127 158.681 33.3398 158.123 31.9941L159.506 31.2769C159.836 32.0957 160.439 32.5845 161.239 32.5845C162.096 32.5845 162.725 32.0132 162.725 31.2261C162.725 30.4009 162.109 29.8486 161.188 29.8486C160.579 29.8486 160.059 30.1216 159.697 30.4834L158.522 29.9565L159.03 25.3799H164.051V26.8906H160.42L160.217 28.7886C160.478 28.5664 161.011 28.3696 161.62 28.3696C163.283 28.3696 164.483 29.4868 164.483 31.2007C164.483 32.9082 163.144 34.127 161.277 34.127Z" fill="white"/>
<rect x="180" y="22" width="62.5" height="15" rx="5" fill="#1E5C8F"/>
<path d="M201.025 34V26.8843H199.19V25.3799H202.739V34H201.025ZM204.408 29.7217C204.408 27.3477 205.487 25.2529 208.039 25.2529C210.597 25.2529 211.676 27.3477 211.676 29.7217C211.676 32.0957 210.572 34.127 208.039 34.127C205.506 34.127 204.408 32.0957 204.408 29.7217ZM208.039 26.7891C206.687 26.7891 206.16 28.2109 206.16 29.6899C206.16 31.2134 206.693 32.5908 208.039 32.5908C209.391 32.5908 209.924 31.2134 209.924 29.6899C209.924 28.2109 209.391 26.7891 208.039 26.7891ZM212.457 33.1938C212.457 32.6733 212.863 32.2607 213.396 32.2607C213.93 32.2607 214.342 32.6733 214.342 33.1938C214.342 33.7207 213.93 34.127 213.396 34.127C212.863 34.127 212.457 33.7207 212.457 33.1938ZM218.424 34.127C216.9 34.127 215.828 33.3398 215.269 31.9941L216.653 31.2769C216.983 32.0957 217.586 32.5845 218.386 32.5845C219.243 32.5845 219.871 32.0132 219.871 31.2261C219.871 30.4009 219.255 29.8486 218.335 29.8486C217.726 29.8486 217.205 30.1216 216.843 30.4834L215.669 29.9565L216.177 25.3799H221.198V26.8906H217.567L217.364 28.7886C217.624 28.5664 218.157 28.3696 218.767 28.3696C220.43 28.3696 221.629 29.4868 221.629 31.2007C221.629 32.9082 220.29 34.127 218.424 34.127Z" fill="white"/>
<rect x="296" y="22" width="62.5" height="15" rx="5" fill="#1E5C8F"/>
<path d="M317.525 34V26.8843H315.69V25.3799H319.239V34H317.525ZM320.908 29.7217C320.908 27.3477 321.987 25.2529 324.539 25.2529C327.097 25.2529 328.176 27.3477 328.176 29.7217C328.176 32.0957 327.072 34.127 324.539 34.127C322.006 34.127 320.908 32.0957 320.908 29.7217ZM324.539 26.7891C323.187 26.7891 322.66 28.2109 322.66 29.6899C322.66 31.2134 323.193 32.5908 324.539 32.5908C325.891 32.5908 326.424 31.2134 326.424 29.6899C326.424 28.2109 325.891 26.7891 324.539 26.7891ZM328.957 33.1938C328.957 32.6733 329.363 32.2607 329.896 32.2607C330.43 32.2607 330.842 32.6733 330.842 33.1938C330.842 33.7207 330.43 34.127 329.896 34.127C329.363 34.127 328.957 33.7207 328.957 33.1938ZM334.924 34.127C333.4 34.127 332.328 33.3398 331.769 31.9941L333.153 31.2769C333.483 32.0957 334.086 32.5845 334.886 32.5845C335.743 32.5845 336.371 32.0132 336.371 31.2261C336.371 30.4009 335.755 29.8486 334.835 29.8486C334.226 29.8486 333.705 30.1216 333.343 30.4834L332.169 29.9565L332.677 25.3799H337.698V26.8906H334.067L333.864 28.7886C334.124 28.5664 334.657 28.3696 335.267 28.3696C336.93 28.3696 338.129 29.4868 338.129 31.2007C338.129 32.9082 336.79 34.127 334.924 34.127Z" fill="white"/>
<path d="M365 37C362.239 37 360 34.7614 360 32V27C360 24.2386 362.239 22 365 22H381C383.761 22 386 24.2386 386 27V32C386 34.7614 383.761 37 381 37H365Z" fill="#1E5C8F"/>
<rect x="244" y="22" width="50" height="15" rx="5" fill="#1E5C8F"/>
<path d="M259.79 34.127C258.19 34.127 256.559 33.3843 256.559 31.6069C256.559 30.5913 257.117 29.8423 257.904 29.4741C257.25 29.125 256.762 28.4775 256.762 27.6016C256.762 25.9766 258.298 25.2529 259.79 25.2529C261.288 25.2529 262.817 25.9766 262.817 27.6016C262.817 28.4775 262.335 29.125 261.681 29.4741C262.468 29.8423 263.033 30.5913 263.033 31.6069C263.033 33.3843 261.396 34.127 259.79 34.127ZM258.52 27.8047C258.52 28.5156 259.009 28.9727 259.79 28.9727C260.577 28.9727 261.065 28.5156 261.065 27.8047C261.065 27.1445 260.577 26.6875 259.79 26.6875C259.002 26.6875 258.52 27.1445 258.52 27.8047ZM259.79 30.1533C258.952 30.1533 258.317 30.6294 258.317 31.4355C258.317 32.2544 258.964 32.7114 259.79 32.7114C260.621 32.7114 261.275 32.2544 261.275 31.4355C261.275 30.6294 260.634 30.1533 259.79 30.1533ZM264.163 33.1938C264.163 32.6733 264.569 32.2607 265.103 32.2607C265.636 32.2607 266.048 32.6733 266.048 33.1938C266.048 33.7207 265.636 34.127 265.103 34.127C264.569 34.127 264.163 33.7207 264.163 33.1938ZM267.051 27.3857C267.515 26.1099 268.708 25.2529 270.016 25.2529C271.818 25.2529 273.107 26.4146 273.107 28.0269C273.107 29.5757 271.774 30.4453 270.606 31.2959C270.155 31.6196 269.368 32.1973 269.235 32.502H273.221V34H267.242V33.2827C267.242 31.8418 268.645 30.8008 269.692 30.0327C270.714 29.2837 271.342 28.7505 271.342 28.0459C271.342 27.2651 270.815 26.7954 270.035 26.7954C269.286 26.7954 268.765 27.3223 268.492 28.0713L267.051 27.3857ZM277.277 34.127C275.754 34.127 274.681 33.3398 274.123 31.9941L275.506 31.2769C275.836 32.0957 276.439 32.5845 277.239 32.5845C278.096 32.5845 278.725 32.0132 278.725 31.2261C278.725 30.4009 278.109 29.8486 277.188 29.8486C276.579 29.8486 276.059 30.1216 275.697 30.4834L274.522 29.9565L275.03 25.3799H280.051V26.8906H276.42L276.217 28.7886C276.478 28.5664 277.011 28.3696 277.62 28.3696C279.283 28.3696 280.483 29.4868 280.483 31.2007C280.483 32.9082 279.144 34.127 277.277 34.127Z" fill="white"/>
<path d="M368.329 31.8354H364.254V30.5088L367.961 25.3799H369.973V30.3755H371.167V31.8354H369.973V34.0063H368.329V31.8354ZM366.12 30.3755H368.329V27.335L366.12 30.3755ZM372.112 33.1938C372.112 32.6733 372.519 32.2607 373.052 32.2607C373.585 32.2607 373.998 32.6733 373.998 33.1938C373.998 33.7207 373.585 34.127 373.052 34.127C372.519 34.127 372.112 33.7207 372.112 33.1938ZM378.079 34.127C376.556 34.127 375.483 33.3398 374.924 31.9941L376.308 31.2769C376.638 32.0957 377.241 32.5845 378.041 32.5845C378.898 32.5845 379.526 32.0132 379.526 31.2261C379.526 30.4009 378.911 29.8486 377.99 29.8486C377.381 29.8486 376.86 30.1216 376.499 30.4834L375.324 29.9565L375.832 25.3799H380.853V26.8906H377.222L377.019 28.7886C377.279 28.5664 377.812 28.3696 378.422 28.3696C380.085 28.3696 381.285 29.4868 381.285 31.2007C381.285 32.9082 379.945 34.127 378.079 34.127Z" fill="white"/>
<rect x="128" y="44" width="62.2587" height="15" rx="5" fill="#1E5C8F"/>
<rect x="193.247" y="44" width="62.2587" height="15" rx="5" fill="#1E5C8F"/>
<rect x="258.494" y="44" width="62.2587" height="15" rx="5" fill="#1E5C8F"/>
<rect x="323.741" y="44" width="62.2587" height="15" rx="5" fill="#1E5C8F"/>
<path d="M148.952 56V48.8843H147.117V47.3799H150.665V56H148.952ZM152.335 51.7217C152.335 49.3477 153.414 47.2529 155.966 47.2529C158.524 47.2529 159.603 49.3477 159.603 51.7217C159.603 54.0957 158.498 56.127 155.966 56.127C153.433 56.127 152.335 54.0957 152.335 51.7217ZM155.966 48.7891C154.614 48.7891 154.087 50.2109 154.087 51.6899C154.087 53.2134 154.62 54.5908 155.966 54.5908C157.318 54.5908 157.851 53.2134 157.851 51.6899C157.851 50.2109 157.318 48.7891 155.966 48.7891ZM160.384 55.1938C160.384 54.6733 160.79 54.2607 161.323 54.2607C161.856 54.2607 162.269 54.6733 162.269 55.1938C162.269 55.7207 161.856 56.127 161.323 56.127C160.79 56.127 160.384 55.7207 160.384 55.1938ZM166.35 56.127C164.827 56.127 163.754 55.3398 163.196 53.9941L164.579 53.2769C164.91 54.0957 165.513 54.5845 166.312 54.5845C167.169 54.5845 167.798 54.0132 167.798 53.2261C167.798 52.4009 167.182 51.8486 166.262 51.8486C165.652 51.8486 165.132 52.1216 164.77 52.4834L163.596 51.9565L164.103 47.3799H169.124V48.8906H165.494L165.29 50.7886C165.551 50.5664 166.084 50.3696 166.693 50.3696C168.356 50.3696 169.556 51.4868 169.556 53.2007C169.556 54.9082 168.217 56.127 166.35 56.127Z" fill="white"/>
<path d="M279.446 56V48.8843H277.611V47.3799H281.16V56H279.446ZM282.829 51.7217C282.829 49.3477 283.908 47.2529 286.46 47.2529C289.018 47.2529 290.097 49.3477 290.097 51.7217C290.097 54.0957 288.993 56.127 286.46 56.127C283.927 56.127 282.829 54.0957 282.829 51.7217ZM286.46 48.7891C285.108 48.7891 284.581 50.2109 284.581 51.6899C284.581 53.2134 285.114 54.5908 286.46 54.5908C287.812 54.5908 288.345 53.2134 288.345 51.6899C288.345 50.2109 287.812 48.7891 286.46 48.7891ZM290.878 55.1938C290.878 54.6733 291.284 54.2607 291.817 54.2607C292.351 54.2607 292.763 54.6733 292.763 55.1938C292.763 55.7207 292.351 56.127 291.817 56.127C291.284 56.127 290.878 55.7207 290.878 55.1938ZM296.845 56.127C295.321 56.127 294.248 55.3398 293.69 53.9941L295.074 53.2769C295.404 54.0957 296.007 54.5845 296.807 54.5845C297.664 54.5845 298.292 54.0132 298.292 53.2261C298.292 52.4009 297.676 51.8486 296.756 51.8486C296.146 51.8486 295.626 52.1216 295.264 52.4834L294.09 51.9565L294.598 47.3799H299.619V48.8906H295.988L295.785 50.7886C296.045 50.5664 296.578 50.3696 297.187 50.3696C298.851 50.3696 300.05 51.4868 300.05 53.2007C300.05 54.9082 298.711 56.127 296.845 56.127Z" fill="white"/>
<path d="M214.697 56V48.8843H212.862V47.3799H216.411V56H214.697ZM218.08 51.7217C218.08 49.3477 219.159 47.2529 221.711 47.2529C224.269 47.2529 225.348 49.3477 225.348 51.7217C225.348 54.0957 224.244 56.127 221.711 56.127C219.178 56.127 218.08 54.0957 218.08 51.7217ZM221.711 48.7891C220.359 48.7891 219.832 50.2109 219.832 51.6899C219.832 53.2134 220.365 54.5908 221.711 54.5908C223.063 54.5908 223.596 53.2134 223.596 51.6899C223.596 50.2109 223.063 48.7891 221.711 48.7891ZM226.129 55.1938C226.129 54.6733 226.535 54.2607 227.068 54.2607C227.602 54.2607 228.014 54.6733 228.014 55.1938C228.014 55.7207 227.602 56.127 227.068 56.127C226.535 56.127 226.129 55.7207 226.129 55.1938ZM232.096 56.127C230.572 56.127 229.499 55.3398 228.941 53.9941L230.325 53.2769C230.655 54.0957 231.258 54.5845 232.058 54.5845C232.914 54.5845 233.543 54.0132 233.543 53.2261C233.543 52.4009 232.927 51.8486 232.007 51.8486C231.397 51.8486 230.877 52.1216 230.515 52.4834L229.341 51.9565L229.849 47.3799H234.87V48.8906H231.239L231.036 50.7886C231.296 50.5664 231.829 50.3696 232.438 50.3696C234.102 50.3696 235.301 51.4868 235.301 53.2007C235.301 54.9082 233.962 56.127 232.096 56.127Z" fill="white"/>
<path d="M345.191 56V48.8843H343.356V47.3799H346.905V56H345.191ZM348.574 51.7217C348.574 49.3477 349.653 47.2529 352.205 47.2529C354.763 47.2529 355.842 49.3477 355.842 51.7217C355.842 54.0957 354.738 56.127 352.205 56.127C349.672 56.127 348.574 54.0957 348.574 51.7217ZM352.205 48.7891C350.853 48.7891 350.326 50.2109 350.326 51.6899C350.326 53.2134 350.859 54.5908 352.205 54.5908C353.557 54.5908 354.09 53.2134 354.09 51.6899C354.09 50.2109 353.557 48.7891 352.205 48.7891ZM356.623 55.1938C356.623 54.6733 357.029 54.2607 357.562 54.2607C358.096 54.2607 358.508 54.6733 358.508 55.1938C358.508 55.7207 358.096 56.127 357.562 56.127C357.029 56.127 356.623 55.7207 356.623 55.1938ZM362.59 56.127C361.066 56.127 359.994 55.3398 359.435 53.9941L360.819 53.2769C361.149 54.0957 361.752 54.5845 362.552 54.5845C363.409 54.5845 364.037 54.0132 364.037 53.2261C364.037 52.4009 363.421 51.8486 362.501 51.8486C361.892 51.8486 361.371 52.1216 361.009 52.4834L359.835 51.9565L360.343 47.3799H365.364V48.8906H361.733L361.53 50.7886C361.79 50.5664 362.323 50.3696 362.933 50.3696C364.596 50.3696 365.795 51.4868 365.795 53.2007C365.795 54.9082 364.456 56.127 362.59 56.127Z" fill="white"/>
<path d="M30.5166 12.127C28.9932 12.127 27.9204 11.3398 27.3618 9.99414L28.7456 9.27686C29.0757 10.0957 29.6787 10.5845 30.4785 10.5845C31.3354 10.5845 31.9639 10.0132 31.9639 9.22607C31.9639 8.40088 31.3481 7.84863 30.4277 7.84863C29.8184 7.84863 29.2979 8.12158 28.936 8.4834L27.7617 7.95654L28.2695 3.37988H33.2905V4.89062H29.6597L29.4565 6.78857C29.7168 6.56641 30.25 6.36963 30.8594 6.36963C32.5225 6.36963 33.7222 7.48682 33.7222 9.20068C33.7222 10.9082 32.3828 12.127 30.5166 12.127ZM39.3525 7.76611V9.12451H34.96V7.76611H39.3525ZM39.2764 4.90332V3.37988H46.373V4.90332H43.6816V12H41.9741V4.90332H39.2764ZM48.0806 12.127C46.6968 12.127 45.7764 11.3843 45.7764 10.2544C45.7764 9.10547 46.8301 8.30566 48.4487 8.30566C48.8677 8.30566 49.3374 8.37549 49.731 8.51514V8.37549C49.731 7.70264 49.1851 7.21387 48.4106 7.21387C47.7061 7.21387 47.1982 7.55664 46.7983 7.98193L45.8652 7.04883C46.2778 6.51562 47.1792 5.7793 48.4614 5.7793C50.2451 5.7793 51.356 6.7251 51.356 8.24854V12H49.8071V11.3208C49.4771 11.8159 48.8486 12.127 48.0806 12.127ZM48.563 9.39111C47.8203 9.39111 47.3188 9.70215 47.3188 10.1655C47.3188 10.6226 47.7124 10.9146 48.3345 10.9146C49.1152 10.9146 49.731 10.394 49.731 9.62598C49.4326 9.49268 49.0454 9.39111 48.563 9.39111ZM52.7144 8.94678C52.7144 7.09326 53.9395 5.7793 55.666 5.7793C56.6436 5.7793 57.272 6.13477 57.6782 6.64258L57.71 5.90625H59.2715L59.2588 11.3589C59.2524 13.3774 57.894 14.6724 55.7358 14.6724C54.6187 14.6724 53.5015 14.1836 52.7969 13.3521L53.8442 12.3237C54.4219 12.8823 55.0439 13.2061 55.7358 13.2061C56.8911 13.2061 57.6465 12.5396 57.6465 11.5239V11.3145C57.2783 11.8032 56.561 12.127 55.666 12.127C53.9395 12.127 52.7144 10.7876 52.7144 8.94678ZM56.0024 7.23926C55.0312 7.23926 54.3521 7.95654 54.3521 8.94043C54.3521 9.90527 55.0312 10.667 56.0024 10.667C56.9609 10.667 57.6592 9.90527 57.6592 8.94043C57.6592 7.96924 56.9609 7.23926 56.0024 7.23926ZM63.8672 12.1333C61.9121 12.1333 60.6553 10.7241 60.6553 8.94678C60.6616 7.08691 61.9819 5.7793 63.791 5.7793C65.4668 5.7793 66.7427 6.90283 66.7427 8.75C66.7427 8.97217 66.7236 9.20068 66.6855 9.44189H62.2803C62.4009 10.1592 63.1309 10.6606 63.9053 10.6606C64.5083 10.6606 65.0288 10.3813 65.4224 9.80371L66.5776 10.667C66.0063 11.6191 64.9399 12.1333 63.8672 12.1333ZM62.3057 8.3501H65.2256C65.1431 7.6709 64.5845 7.15039 63.8101 7.15039C63.0039 7.15039 62.3945 7.6582 62.3057 8.3501ZM72.3857 7.76611V9.12451H67.9932V7.76611H72.3857ZM72.8555 3.37988H74.5757L76.4863 10.2925L78.4224 3.51318H79.9648L81.9009 10.2925L83.8115 3.37988H85.5317L83.1704 12H80.771L79.1904 6.4458L77.6162 12H75.2168L72.8555 3.37988ZM89.042 12.127C87.1758 12.127 85.7856 10.7559 85.7856 8.95312C85.7856 7.15674 87.1758 5.7793 89.042 5.7793C90.9146 5.7793 92.2983 7.15674 92.2983 8.95312C92.2983 10.7559 90.9146 12.127 89.042 12.127ZM87.4043 8.95312C87.4043 9.93066 88.0898 10.6543 89.042 10.6543C90.0005 10.6543 90.6797 9.93066 90.6797 8.95312C90.6797 7.98193 90.0005 7.2583 89.042 7.2583C88.0898 7.2583 87.4043 7.98193 87.4043 8.95312ZM96.4624 12.127C94.6343 12.127 93.2505 10.7178 93.2505 8.94043C93.2505 7.15674 94.6914 5.76025 96.5005 5.76025C97.6431 5.76025 98.7729 6.35693 99.3315 7.49951L98.0938 8.28662C97.7383 7.58203 97.1162 7.2583 96.5259 7.2583C95.5483 7.2583 94.8691 8.00732 94.8691 8.97217C94.8691 9.91797 95.5674 10.6543 96.5005 10.6543C97.1606 10.6543 97.7129 10.3433 98.1255 9.60059L99.2998 10.4258C98.7412 11.5366 97.605 12.127 96.4624 12.127ZM102.239 12H100.607V3.0625H102.239V6.55371C102.556 6.1665 103.191 5.7793 104.067 5.7793C105.463 5.7793 106.46 6.70605 106.46 8.17236V12H104.829V8.59131C104.829 7.74707 104.289 7.29004 103.584 7.29004C102.874 7.29004 102.239 7.74707 102.239 8.59131V12ZM110.992 12.1333C109.037 12.1333 107.78 10.7241 107.78 8.94678C107.787 7.08691 109.107 5.7793 110.916 5.7793C112.592 5.7793 113.868 6.90283 113.868 8.75C113.868 8.97217 113.849 9.20068 113.811 9.44189H109.405C109.526 10.1592 110.256 10.6606 111.03 10.6606C111.633 10.6606 112.154 10.3813 112.547 9.80371L113.703 10.667C113.131 11.6191 112.065 12.1333 110.992 12.1333ZM109.431 8.3501H112.351C112.268 7.6709 111.709 7.15039 110.935 7.15039C110.129 7.15039 109.52 7.6582 109.431 8.3501Z" fill="black"/>
<path d="M4.98291 33.127C2.46924 33.127 0.51416 31.21 0.51416 28.6899C0.51416 26.1699 2.41846 24.2529 4.93848 24.2529C6.43018 24.2529 7.80762 24.9639 8.71533 26.2778L7.36328 27.2427C6.69043 26.2271 5.81445 25.8398 4.93848 25.8398C3.37061 25.8398 2.27246 27.0205 2.27246 28.6899C2.27246 30.3657 3.41504 31.54 4.98291 31.54C6.41748 31.54 7.22363 30.6958 7.42041 29.7817H4.81152V28.3027H9.15332C9.17871 28.5249 9.18506 28.7788 9.18506 28.9946C9.18506 31.21 7.62354 33.127 4.98291 33.127ZM13.3301 33.1333C11.375 33.1333 10.1182 31.7241 10.1182 29.9468C10.1245 28.0869 11.4448 26.7793 13.2539 26.7793C14.9297 26.7793 16.2056 27.9028 16.2056 29.75C16.2056 29.9722 16.1865 30.2007 16.1484 30.4419H11.7432C11.8638 31.1592 12.5938 31.6606 13.3682 31.6606C13.9712 31.6606 14.4917 31.3813 14.8853 30.8037L16.0405 31.667C15.4692 32.6191 14.4028 33.1333 13.3301 33.1333ZM11.7686 29.3501H14.6885C14.606 28.6709 14.0474 28.1504 13.2729 28.1504C12.4668 28.1504 11.8574 28.6582 11.7686 29.3501ZM19.2524 33H17.6211V26.9062H19.1699L19.2017 27.6108C19.5127 27.1855 20.1729 26.7793 21.0679 26.7793C21.9946 26.7793 22.7563 27.1665 23.1118 27.8584C23.5435 27.2109 24.3179 26.7793 25.2256 26.7793C26.6221 26.7793 27.6187 27.687 27.6187 29.1724V33H25.9873V29.5913C25.9873 28.7471 25.4668 28.29 24.7686 28.29C24.0703 28.29 23.4292 28.728 23.4292 29.5532V33H21.7979V29.5913C21.7979 28.7471 21.271 28.29 20.5854 28.29C19.8809 28.29 19.2524 28.7471 19.2524 29.5913V33ZM29.2627 24.9512C29.2627 24.3989 29.6436 24.0117 30.1958 24.0117C30.748 24.0117 31.1353 24.3926 31.1353 24.9512C31.1353 25.5034 30.748 25.8843 30.1958 25.8843C29.6436 25.8843 29.2627 25.5034 29.2627 24.9512ZM31.021 33H29.3896V26.9062H31.021V33ZM32.3984 31.7114L33.4902 30.8291C33.8584 31.4004 34.4805 31.7686 35.0962 31.7686C35.585 31.7686 35.9658 31.5781 35.9658 31.2354C35.9658 30.9116 35.6421 30.7974 34.8994 30.6323C33.5664 30.334 32.627 29.9087 32.627 28.6582C32.627 27.5156 33.6807 26.7793 35.0073 26.7793C36.2451 26.7793 37.0132 27.3887 37.4512 28.0488L36.4102 28.9058C36.1436 28.4805 35.6929 28.1504 35.0454 28.1504C34.5186 28.1504 34.1567 28.3345 34.1567 28.6392C34.1567 28.9692 34.5439 29.0771 35.2993 29.2612C36.6577 29.5913 37.521 30.0293 37.521 31.2354C37.521 32.3843 36.4165 33.127 35.1152 33.127C33.9155 33.127 32.9507 32.5747 32.3984 31.7114ZM41.7358 33.127C39.9077 33.127 38.5239 31.7178 38.5239 29.9404C38.5239 28.1567 39.9648 26.7603 41.7739 26.7603C42.9165 26.7603 44.0464 27.3569 44.605 28.4995L43.3672 29.2866C43.0117 28.582 42.3896 28.2583 41.7993 28.2583C40.8218 28.2583 40.1426 29.0073 40.1426 29.9722C40.1426 30.918 40.8408 31.6543 41.7739 31.6543C42.4341 31.6543 42.9863 31.3433 43.3989 30.6006L44.5732 31.4258C44.0146 32.5366 42.8784 33.127 41.7358 33.127ZM47.5122 33H45.8809V24.0625H47.5122V27.5537C47.8296 27.1665 48.4644 26.7793 49.3403 26.7793C50.7368 26.7793 51.7334 27.7061 51.7334 29.1724V33H50.1021V29.5913C50.1021 28.7471 49.5625 28.29 48.8579 28.29C48.147 28.29 47.5122 28.7471 47.5122 29.5913V33ZM53.7329 28.2583H52.7046V26.9062H53.7393V24.9512H55.3198V26.9062H57.1479V28.2583H55.3579V30.7656C55.3579 31.4004 55.7134 31.6797 56.2593 31.6797C56.564 31.6797 56.9512 31.6099 57.2939 31.4702L57.4463 32.8223C57.0718 33.0063 56.4688 33.127 55.9736 33.127C54.6343 33.127 53.7329 32.4351 53.7329 31.0005V28.2583ZM61.166 33.1333C59.2109 33.1333 57.9541 31.7241 57.9541 29.9468C57.9604 28.0869 59.2808 26.7793 61.0898 26.7793C62.7656 26.7793 64.0415 27.9028 64.0415 29.75C64.0415 29.9722 64.0225 30.2007 63.9844 30.4419H59.5791C59.6997 31.1592 60.4297 31.6606 61.2041 31.6606C61.8071 31.6606 62.3276 31.3813 62.7212 30.8037L63.8765 31.667C63.3052 32.6191 62.2388 33.1333 61.166 33.1333ZM59.6045 29.3501H62.5244C62.4419 28.6709 61.8833 28.1504 61.1089 28.1504C60.3027 28.1504 59.6934 28.6582 59.6045 29.3501ZM64.9873 31.7114L66.0791 30.8291C66.4473 31.4004 67.0693 31.7686 67.6851 31.7686C68.1738 31.7686 68.5547 31.5781 68.5547 31.2354C68.5547 30.9116 68.231 30.7974 67.4883 30.6323C66.1553 30.334 65.2158 29.9087 65.2158 28.6582C65.2158 27.5156 66.2695 26.7793 67.5962 26.7793C68.834 26.7793 69.6021 27.3887 70.04 28.0488L68.999 28.9058C68.7324 28.4805 68.2817 28.1504 67.6343 28.1504C67.1074 28.1504 66.7456 28.3345 66.7456 28.6392C66.7456 28.9692 67.1328 29.0771 67.8882 29.2612C69.2466 29.5913 70.1099 30.0293 70.1099 31.2354C70.1099 32.3843 69.0054 33.127 67.7041 33.127C66.5044 33.127 65.5396 32.5747 64.9873 31.7114ZM74.8896 33V24.3799H76.7051L79.4854 30.1182L82.2593 24.3799H84.0747V33H82.3608V27.7124L80.0376 32.4224H78.9268L76.6035 27.7124V33H74.8896ZM88.8799 33.127C87.0137 33.127 85.6235 31.7559 85.6235 29.9531C85.6235 28.1567 87.0137 26.7793 88.8799 26.7793C90.7524 26.7793 92.1362 28.1567 92.1362 29.9531C92.1362 31.7559 90.7524 33.127 88.8799 33.127ZM87.2422 29.9531C87.2422 30.9307 87.9277 31.6543 88.8799 31.6543C89.8384 31.6543 90.5176 30.9307 90.5176 29.9531C90.5176 28.9819 89.8384 28.2583 88.8799 28.2583C87.9277 28.2583 87.2422 28.9819 87.2422 29.9531ZM93.1011 29.9468C93.1011 28.0933 94.3262 26.7793 96.0527 26.7793C97.0303 26.7793 97.6587 27.1348 98.0649 27.6426V24.0625H99.6646V33H98.0649L98.0332 32.3525C97.627 32.8223 96.9478 33.127 96.0527 33.127C94.3262 33.127 93.1011 31.7876 93.1011 29.9468ZM96.3892 28.2393C95.418 28.2393 94.7388 28.9565 94.7388 29.9404C94.7388 30.9053 95.418 31.667 96.3892 31.667C97.3477 31.667 98.0459 30.9053 98.0459 29.9404C98.0459 28.9692 97.3477 28.2393 96.3892 28.2393ZM104.279 33.1333C102.324 33.1333 101.067 31.7241 101.067 29.9468C101.074 28.0869 102.394 26.7793 104.203 26.7793C105.879 26.7793 107.155 27.9028 107.155 29.75C107.155 29.9722 107.136 30.2007 107.098 30.4419H102.692C102.813 31.1592 103.543 31.6606 104.317 31.6606C104.92 31.6606 105.441 31.3813 105.834 30.8037L106.99 31.667C106.418 32.6191 105.352 33.1333 104.279 33.1333ZM102.718 29.3501H105.638C105.555 28.6709 104.997 28.1504 104.222 28.1504C103.416 28.1504 102.807 28.6582 102.718 29.3501ZM110.195 24.0625V33H108.57V24.0625H110.195ZM113.674 24.0625V33H112.049V24.0625H113.674Z" fill="black"/>
<path d="M31.3291 52.8354H27.2539V51.5088L30.9609 46.3799H32.9731V51.3755H34.1665V52.8354H32.9731V55.0063H31.3291V52.8354ZM29.1201 51.3755H31.3291V48.335L29.1201 51.3755ZM39.6953 50.7661V52.1245H35.3027V50.7661H39.6953ZM39.6191 47.9033V46.3799H46.7158V47.9033H44.0244V55H42.3169V47.9033H39.6191ZM48.4233 55.127C47.0396 55.127 46.1191 54.3843 46.1191 53.2544C46.1191 52.1055 47.1729 51.3057 48.7915 51.3057C49.2104 51.3057 49.6802 51.3755 50.0737 51.5151V51.3755C50.0737 50.7026 49.5278 50.2139 48.7534 50.2139C48.0488 50.2139 47.541 50.5566 47.1411 50.9819L46.208 50.0488C46.6206 49.5156 47.522 48.7793 48.8042 48.7793C50.5879 48.7793 51.6987 49.7251 51.6987 51.2485V55H50.1499V54.3208C49.8198 54.8159 49.1914 55.127 48.4233 55.127ZM48.9058 52.3911C48.1631 52.3911 47.6616 52.7021 47.6616 53.1655C47.6616 53.6226 48.0552 53.9146 48.6772 53.9146C49.458 53.9146 50.0737 53.394 50.0737 52.626C49.7754 52.4927 49.3882 52.3911 48.9058 52.3911ZM53.0571 51.9468C53.0571 50.0933 54.2822 48.7793 56.0088 48.7793C56.9863 48.7793 57.6147 49.1348 58.021 49.6426L58.0527 48.9062H59.6143L59.6016 54.3589C59.5952 56.3774 58.2368 57.6724 56.0786 57.6724C54.9614 57.6724 53.8442 57.1836 53.1396 56.3521L54.187 55.3237C54.7646 55.8823 55.3867 56.2061 56.0786 56.2061C57.2339 56.2061 57.9893 55.5396 57.9893 54.5239V54.3145C57.6211 54.8032 56.9038 55.127 56.0088 55.127C54.2822 55.127 53.0571 53.7876 53.0571 51.9468ZM56.3452 50.2393C55.374 50.2393 54.6948 50.9565 54.6948 51.9404C54.6948 52.9053 55.374 53.667 56.3452 53.667C57.3037 53.667 58.002 52.9053 58.002 51.9404C58.002 50.9692 57.3037 50.2393 56.3452 50.2393ZM64.21 55.1333C62.2549 55.1333 60.998 53.7241 60.998 51.9468C61.0044 50.0869 62.3247 48.7793 64.1338 48.7793C65.8096 48.7793 67.0854 49.9028 67.0854 51.75C67.0854 51.9722 67.0664 52.2007 67.0283 52.4419H62.623C62.7437 53.1592 63.4736 53.6606 64.248 53.6606C64.8511 53.6606 65.3716 53.3813 65.7651 52.8037L66.9204 53.667C66.3491 54.6191 65.2827 55.1333 64.21 55.1333ZM62.6484 51.3501H65.5684C65.4858 50.6709 64.9272 50.1504 64.1528 50.1504C63.3467 50.1504 62.7373 50.6582 62.6484 51.3501ZM72.7285 50.7661V52.1245H68.3359V50.7661H72.7285ZM73.1982 46.3799H74.9185L76.8291 53.2925L78.7651 46.5132H80.3076L82.2437 53.2925L84.1543 46.3799H85.8745L83.5132 55H81.1138L79.5332 49.4458L77.959 55H75.5596L73.1982 46.3799ZM89.3848 55.127C87.5186 55.127 86.1284 53.7559 86.1284 51.9531C86.1284 50.1567 87.5186 48.7793 89.3848 48.7793C91.2573 48.7793 92.6411 50.1567 92.6411 51.9531C92.6411 53.7559 91.2573 55.127 89.3848 55.127ZM87.7471 51.9531C87.7471 52.9307 88.4326 53.6543 89.3848 53.6543C90.3433 53.6543 91.0225 52.9307 91.0225 51.9531C91.0225 50.9819 90.3433 50.2583 89.3848 50.2583C88.4326 50.2583 87.7471 50.9819 87.7471 51.9531ZM96.8052 55.127C94.9771 55.127 93.5933 53.7178 93.5933 51.9404C93.5933 50.1567 95.0342 48.7603 96.8433 48.7603C97.9858 48.7603 99.1157 49.3569 99.6743 50.4995L98.4365 51.2866C98.0811 50.582 97.459 50.2583 96.8687 50.2583C95.8911 50.2583 95.2119 51.0073 95.2119 51.9722C95.2119 52.918 95.9102 53.6543 96.8433 53.6543C97.5034 53.6543 98.0557 53.3433 98.4683 52.6006L99.6426 53.4258C99.084 54.5366 97.9478 55.127 96.8052 55.127ZM102.582 55H100.95V46.0625H102.582V49.5537C102.899 49.1665 103.534 48.7793 104.41 48.7793C105.806 48.7793 106.803 49.7061 106.803 51.1724V55H105.171V51.5913C105.171 50.7471 104.632 50.29 103.927 50.29C103.216 50.29 102.582 50.7471 102.582 51.5913V55ZM111.335 55.1333C109.38 55.1333 108.123 53.7241 108.123 51.9468C108.129 50.0869 109.45 48.7793 111.259 48.7793C112.935 48.7793 114.21 49.9028 114.21 51.75C114.21 51.9722 114.191 52.2007 114.153 52.4419H109.748C109.869 53.1592 110.599 53.6606 111.373 53.6606C111.976 53.6606 112.497 53.3813 112.89 52.8037L114.045 53.667C113.474 54.6191 112.408 55.1333 111.335 55.1333ZM109.773 51.3501H112.693C112.611 50.6709 112.052 50.1504 111.278 50.1504C110.472 50.1504 109.862 50.6582 109.773 51.3501Z" fill="black"/>
</svg>
